<svg width="49" height="58" viewBox="0 0 49 58" fill="none" xmlns="http://www.w3.org/2000/svg">
<path fill-rule="evenodd" clip-rule="evenodd" d="M24.5 0.898926C38.031 0.898926 49 12.1287 49 25.9813C49 35.1481 41.5892 44.8401 27.0814 55.3983L24.5 57.2489L22.9423 56.1363C7.75948 45.2912 0 35.3612 0 25.9813C0 12.1287 10.969 0.898926 24.5 0.898926ZM24.5001 6.47249C13.976 6.47249 5.44454 15.2068 5.44454 25.981C5.44454 32.7501 11.6967 41.0098 24.5001 50.4354C37.3035 41.0098 43.5557 32.7501 43.5557 25.981C43.5557 15.2068 35.0242 6.47249 24.5001 6.47249ZM24.5001 12.1691C30.5139 12.1691 35.389 17.2149 35.389 23.4391C35.389 29.6634 30.5139 34.7091 24.5001 34.7091C18.4863 34.7091 13.6112 29.6634 13.6112 23.4391C13.6112 17.2149 18.4863 12.1691 24.5001 12.1691ZM24.4999 17.8042C21.493 17.8042 19.0555 20.3271 19.0555 23.4392C19.0555 26.5513 21.493 29.0742 24.4999 29.0742C27.5068 29.0742 29.9444 26.5513 29.9444 23.4392C29.9444 20.3271 27.5068 17.8042 24.4999 17.8042Z" fill="#EEFBFB"/>
</svg>
