<svg width="168" height="58" viewBox="0 0 168 58" fill="none" xmlns="http://www.w3.org/2000/svg">
<path d="M28.56 0C12.8251 0 0 12.815 0 28.5374C0 44.2598 12.8251 57.0747 28.56 57.0747C35.3375 57.0745 41.8918 54.6537 47.04 50.2492C52.1884 54.6534 58.7426 57.0739 65.52 57.0739C72.2974 57.0739 78.8516 54.6534 84 50.2492C89.1484 54.6534 95.7026 57.0739 102.48 57.0739C109.257 57.0739 115.812 54.6534 120.96 50.2492C126.108 54.6537 132.662 57.0745 139.44 57.0747C155.175 57.0747 168 44.2598 168 28.5374C168 12.815 155.175 0 139.44 0C132.662 0.000223705 126.108 2.42099 120.96 6.82547C115.812 2.42128 109.257 0.000800451 102.48 0.000800451C95.7026 0.000800451 89.1484 2.42128 84 6.82547C78.8516 2.42128 72.2974 0.000800451 65.52 0.000800451C58.7426 0.000800451 52.1884 2.42128 47.04 6.82547C41.8918 2.42099 35.3375 0.000223705 28.56 0ZM28.56 6.71467C33.8722 6.71467 38.7274 8.59142 42.504 11.7171C38.9057 16.5884 36.9628 22.4829 36.96 28.5374C36.96 34.8256 39.0365 40.6338 42.504 45.3576C38.5844 48.603 33.6504 50.3731 28.56 50.36C25.6901 50.3667 22.8471 49.8067 20.1943 48.7124C17.5416 47.6181 15.1313 46.0109 13.102 43.9831C11.0726 41.9554 9.46414 39.547 8.36893 36.8964C7.27373 34.2457 6.71335 31.405 6.72 28.5374C6.72 16.4442 16.4573 6.71467 28.56 6.71467ZM65.52 6.71467C70.8322 6.71467 75.6874 8.59142 79.464 11.7171C75.8657 16.5884 73.9228 22.4829 73.92 28.5374C73.92 34.8256 75.9965 40.6338 79.464 45.3576C75.5444 48.603 70.6104 50.3731 65.52 50.36C60.4296 50.3731 55.4956 48.603 51.576 45.3576C55.1743 40.4863 57.1172 34.5918 57.12 28.5374C57.1172 22.4829 55.1743 16.5884 51.576 11.7171C55.4956 8.47167 60.4296 6.7016 65.52 6.71467ZM102.48 6.71467C107.792 6.71467 112.647 8.59142 116.424 11.7171C112.826 16.5884 110.883 22.4829 110.88 28.5374C110.88 34.8256 112.956 40.6338 116.424 45.3576C112.504 48.603 107.57 50.3731 102.48 50.36C97.3896 50.3731 92.4556 48.603 88.536 45.3576C92.1343 40.4863 94.0772 34.5918 94.08 28.5374C94.0772 22.4829 92.1343 16.5884 88.536 11.7171C92.4556 8.47167 97.3896 6.7016 102.48 6.71467ZM139.44 6.71467C151.543 6.71467 161.28 16.4442 161.28 28.5374C161.28 40.6305 151.543 50.36 139.44 50.36C134.35 50.3731 129.416 48.603 125.496 45.3576C129.094 40.4863 131.037 34.5918 131.04 28.5374C131.037 22.4829 129.094 16.5884 125.496 11.7171C129.416 8.47167 134.35 6.7016 139.44 6.71467ZM47.04 16.9109C49.1568 20.275 50.4 24.25 50.4 28.5374C50.4 32.8247 49.1568 36.7964 47.04 40.1638C44.8414 36.6841 43.6763 32.6525 43.68 28.5374C43.68 24.25 44.9232 20.2783 47.04 16.9109ZM84 16.9109C86.1168 20.275 87.36 24.25 87.36 28.5374C87.36 32.8247 86.1168 36.7964 84 40.1638C81.8014 36.6841 80.6363 32.6525 80.64 28.5374C80.64 24.25 81.8832 20.2783 84 16.9109ZM120.96 16.9109C123.077 20.275 124.32 24.25 124.32 28.5374C124.32 32.8247 123.077 36.7964 120.96 40.1638C118.761 36.6841 117.596 32.6525 117.6 28.5374C117.6 24.25 118.843 20.2783 120.96 16.9109Z" fill="white"/>
</svg>
