<svg width="475" height="475" viewBox="0 0 475 475" fill="none" xmlns="http://www.w3.org/2000/svg">
<g clip-path="url(#clip0)">
<path d="M452.381 368.375H443.899C442.399 368.375 440.96 368.971 439.9 370.031C438.84 371.092 438.244 372.53 438.244 374.03C438.244 375.53 438.84 376.968 439.9 378.029C440.96 379.089 442.399 379.685 443.899 379.685H452.381C453.88 379.685 455.319 379.089 456.379 378.029C457.44 376.968 458.035 375.53 458.035 374.03C458.035 372.53 457.44 371.092 456.379 370.031C455.319 368.971 453.88 368.375 452.381 368.375Z" fill="#007CC7"/>
<path d="M469.345 379.683C472.468 379.683 475 377.152 475 374.029C475 370.906 472.468 368.374 469.345 368.374C466.222 368.374 463.69 370.906 463.69 374.029C463.69 377.152 466.222 379.683 469.345 379.683Z" fill="#007CC7"/>
<path d="M334.066 390.994H310.577C309.155 391.108 307.829 391.753 306.861 392.801C305.894 393.849 305.357 395.223 305.357 396.649C305.357 398.075 305.894 399.449 306.861 400.497C307.829 401.545 309.155 402.19 310.577 402.304H334.066C335.487 402.19 336.814 401.545 337.781 400.497C338.748 399.449 339.286 398.075 339.286 396.649C339.286 395.223 338.748 393.849 337.781 392.801C336.814 391.753 335.487 391.108 334.066 390.994ZM164.423 390.994H140.934C139.512 391.108 138.186 391.753 137.218 392.801C136.251 393.849 135.714 395.223 135.714 396.649C135.714 398.075 136.251 399.449 137.218 400.497C138.186 401.545 139.512 402.19 140.934 402.304H164.423C165.844 402.19 167.171 401.545 168.138 400.497C169.106 399.449 169.643 398.075 169.643 396.649C169.643 395.223 169.106 393.849 168.138 392.801C167.171 391.753 165.844 391.108 164.423 390.994ZM294.047 390.994H180.952C179.452 390.994 178.014 391.59 176.954 392.65C175.893 393.711 175.297 395.149 175.297 396.649C175.297 398.149 175.893 399.587 176.954 400.647C178.014 401.708 179.452 402.304 180.952 402.304H226.021V407.958H203.571C202.071 407.958 200.633 408.554 199.573 409.615C198.512 410.675 197.916 412.113 197.916 413.613C197.916 415.113 198.512 416.551 199.573 417.612C200.633 418.672 202.071 419.268 203.571 419.268H274.256C275.755 419.268 277.194 418.672 278.254 417.612C279.315 416.551 279.91 415.113 279.91 413.613C279.91 412.113 279.315 410.675 278.254 409.615C277.194 408.554 275.755 407.958 274.256 407.958H248.979V402.304H294.047C295.547 402.304 296.985 401.708 298.046 400.647C299.106 399.587 299.702 398.149 299.702 396.649C299.702 395.149 299.106 393.711 298.046 392.65C296.985 391.59 295.547 390.994 294.047 390.994ZM189.445 292.036H364.734C365.827 292.036 366.895 291.719 367.812 291.125C368.728 290.53 369.453 289.683 369.898 288.686C370.343 287.688 370.49 286.583 370.32 285.504C370.151 284.425 369.673 283.418 368.943 282.605L348.658 259.986C348.128 259.395 347.479 258.922 346.754 258.598C346.029 258.275 345.243 258.107 344.449 258.107H240.513C227.21 258.137 214.236 262.247 203.342 269.882L186.227 281.731C185.235 282.417 184.49 283.402 184.097 284.542C183.705 285.681 183.688 286.916 184.047 288.067C184.406 289.217 185.124 290.223 186.095 290.937C187.066 291.651 188.239 292.036 189.445 292.036V292.036ZM209.782 279.179C218.786 272.858 229.512 269.451 240.513 269.417H341.926L352.068 280.726H207.547L209.782 279.179Z" fill="#EEFBFB"/>
<path d="M56.5639 342.928C56.5673 345.927 57.7598 348.801 59.8799 350.921C62 353.042 64.8746 354.234 67.8729 354.238H83.4643C85.9852 354.222 88.4297 353.371 90.4146 351.817C92.3995 350.263 93.8126 348.094 94.4324 345.651C96.4554 337.915 101.146 331.143 107.676 326.529C114.205 321.914 122.155 319.755 130.122 320.431C138.089 321.107 145.562 324.575 151.221 330.224C156.88 335.872 160.362 343.338 161.052 351.304C161.207 352.782 161.865 354.161 162.917 355.21C163.969 356.259 165.349 356.914 166.827 357.065H311.13L311.132 357.065L311.136 357.065C311.508 357.064 311.879 357.027 312.243 356.953C312.365 356.929 312.476 356.881 312.594 356.849C312.827 356.793 313.055 356.722 313.278 356.637C313.417 356.58 313.543 356.501 313.676 356.434C313.863 356.345 314.045 356.246 314.222 356.137C314.351 356.052 314.466 355.95 314.588 355.855C314.749 355.736 314.903 355.608 315.05 355.473C315.163 355.365 315.259 355.243 315.362 355.126C315.496 354.979 315.623 354.826 315.741 354.666C315.833 354.537 315.908 354.397 315.989 354.259C316.092 354.092 316.185 353.919 316.27 353.741C316.339 353.589 316.391 353.429 316.446 353.27C316.513 353.089 316.57 352.904 316.618 352.717C316.659 352.547 316.681 352.372 316.705 352.196C316.724 352.065 316.761 351.941 316.771 351.807C317.373 343.414 321.073 335.545 327.151 329.727C333.229 323.909 341.253 320.557 349.663 320.323C358.074 320.088 366.272 322.987 372.665 328.457C379.059 333.927 383.191 341.578 384.26 349.924C384.277 350.055 384.323 350.175 384.348 350.303C384.375 350.435 384.379 350.567 384.415 350.7C384.426 350.74 384.454 350.769 384.466 350.809C384.62 351.33 384.85 351.827 385.149 352.281C385.21 352.375 385.276 352.46 385.342 352.549C385.652 352.98 386.021 353.365 386.438 353.692C386.485 353.728 386.538 353.751 386.587 353.786C386.984 354.066 387.416 354.294 387.871 354.464C387.977 354.504 388.075 354.551 388.183 354.585C388.677 354.738 389.19 354.822 389.708 354.836C389.762 354.837 389.812 354.862 389.867 354.862C389.955 354.862 390.046 354.83 390.136 354.826C390.287 354.819 390.435 354.834 390.587 354.815C390.767 354.792 390.931 354.734 391.104 354.695C391.191 354.676 391.277 354.684 391.363 354.66L400.745 352.091C405.827 350.69 410.311 347.662 413.509 343.471C416.707 339.28 418.443 334.156 418.452 328.884V295.583C418.468 289.779 416.379 284.165 412.572 279.784C408.764 275.402 403.498 272.55 397.748 271.755L370.811 243.671L378.143 240.738C379.536 240.181 380.65 239.094 381.241 237.716C381.832 236.337 381.851 234.781 381.294 233.388C380.737 231.996 379.65 230.881 378.272 230.291C376.893 229.7 375.337 229.681 373.944 230.238L360.818 235.488H231.881C217.273 235.98 203.101 240.587 190.997 248.78L148.505 275.741C112.027 275.089 85.6786 282.888 70.2034 299.018C61.5363 307.717 56.6373 319.475 56.5641 331.754L56.5639 342.928ZM78.3634 306.847C91.5981 293.053 116.364 286.186 149.943 287.086C151.067 287.125 152.175 286.818 153.119 286.208L197.057 258.329C207.353 251.293 219.421 247.296 231.881 246.797H358.141L391.047 281.105C392.059 282.161 393.44 282.783 394.901 282.842C398.195 282.965 401.313 284.363 403.596 286.739C405.88 289.116 407.152 292.287 407.143 295.583V328.884C407.139 331.678 406.218 334.393 404.523 336.614C402.829 338.835 400.452 340.44 397.759 341.182L394.157 342.168C391.443 332.33 385.478 323.701 377.235 317.685C368.991 311.669 358.954 308.621 348.757 309.037C338.56 309.453 328.805 313.309 321.078 319.976C313.352 326.643 308.111 335.73 306.207 345.756H171.67C169.747 335.661 164.443 326.523 156.632 319.846C148.822 313.169 138.97 309.352 128.699 309.023C118.429 308.693 108.352 311.872 100.13 318.035C91.9077 324.198 86.0296 332.978 83.4641 342.928H67.8728V331.619C67.8728 331.492 67.8687 331.366 67.8604 331.239C68.108 322.063 71.8674 313.333 78.3634 306.847Z" fill="#007CC7"/>
<path d="M5.65446 379.683C8.7775 379.683 11.3092 377.152 11.3092 374.029C11.3092 370.906 8.7775 368.374 5.65446 368.374C2.53142 368.374 -0.000305176 370.906 -0.000305176 374.029C-0.000305176 377.152 2.53142 379.683 5.65446 379.683Z" fill="#007CC7"/>
<path d="M31.1009 368.375H22.6188C21.119 368.375 19.6807 368.971 18.6203 370.031C17.5598 371.092 16.964 372.53 16.964 374.03C16.964 375.53 17.5598 376.968 18.6203 378.028C19.6807 379.089 21.119 379.685 22.6188 379.685H31.1009C32.6007 379.685 34.039 379.089 35.0994 378.028C36.1599 376.968 36.7557 375.53 36.7557 374.03C36.7557 372.53 36.1599 371.092 35.0994 370.031C34.039 368.971 32.6007 368.375 31.1009 368.375ZM426.146 368.375H371.741C374.306 364.545 375.782 360.089 376.012 355.485C376.241 350.881 375.216 346.3 373.045 342.234C370.874 338.167 367.639 334.766 363.685 332.395C359.731 330.024 355.208 328.772 350.598 328.772C345.988 328.772 341.465 330.024 337.511 332.395C333.557 334.766 330.322 338.167 328.151 342.234C325.98 346.3 324.955 350.881 325.184 355.485C325.414 360.089 326.89 364.545 329.455 368.375H148.388C150.953 364.545 152.429 360.089 152.659 355.485C152.888 350.881 151.863 346.3 149.692 342.234C147.521 338.167 144.285 334.766 140.332 332.395C136.378 330.024 131.855 328.772 127.245 328.772C122.635 328.772 118.111 330.024 114.158 332.395C110.204 334.766 106.969 338.167 104.798 342.234C102.627 346.3 101.602 350.881 101.831 355.485C102.061 360.089 103.537 364.545 106.102 368.375H48.8533C48.0488 368.27 47.2312 368.338 46.455 368.574C45.6788 368.81 44.9619 369.209 44.3522 369.744C43.7425 370.279 43.254 370.939 42.9194 371.678C42.5847 372.417 42.4116 373.219 42.4116 374.03C42.4116 374.841 42.5847 375.643 42.9194 376.382C43.254 377.121 43.7425 377.781 44.3522 378.316C44.9619 378.851 45.6788 379.25 46.455 379.486C47.2312 379.722 48.0488 379.79 48.8533 379.685H426.146C426.951 379.79 427.768 379.722 428.545 379.486C429.321 379.25 430.038 378.851 430.647 378.316C431.257 377.781 431.746 377.121 432.08 376.382C432.415 375.643 432.588 374.841 432.588 374.03C432.588 373.219 432.415 372.417 432.08 371.678C431.746 370.939 431.257 370.279 430.647 369.744C430.038 369.209 429.321 368.81 428.545 368.574C427.768 368.338 426.951 368.27 426.146 368.375ZM336.462 354.238C336.462 351.442 337.291 348.709 338.844 346.385C340.398 344.06 342.606 342.248 345.189 341.178C347.772 340.109 350.614 339.829 353.356 340.374C356.098 340.92 358.617 342.266 360.594 344.243C362.571 346.22 363.917 348.739 364.463 351.481C365.008 354.223 364.728 357.066 363.658 359.649C362.588 362.232 360.776 364.44 358.452 365.993C356.127 367.546 353.394 368.375 350.598 368.375C346.849 368.375 343.253 366.886 340.602 364.235C337.951 361.583 336.462 357.988 336.462 354.238H336.462ZM113.109 354.238C113.109 351.442 113.938 348.709 115.492 346.385C117.045 344.06 119.253 342.248 121.836 341.179C124.419 340.109 127.261 339.829 130.003 340.374C132.745 340.92 135.264 342.266 137.241 344.243C139.218 346.22 140.564 348.739 141.11 351.481C141.655 354.224 141.375 357.066 140.305 359.649C139.235 362.232 137.423 364.44 135.099 365.993C132.774 367.546 130.041 368.375 127.245 368.375C125.389 368.375 123.55 368.009 121.835 367.299C120.12 366.589 118.562 365.547 117.249 364.234C115.936 362.922 114.895 361.363 114.185 359.648C113.474 357.933 113.109 356.095 113.109 354.238H113.109ZM161.16 217.178C162.838 217.178 164.478 216.68 165.873 215.748C167.268 214.816 168.355 213.492 168.997 211.942C169.639 210.392 169.807 208.686 169.48 207.041C169.152 205.395 168.344 203.884 167.158 202.698C165.972 201.512 164.461 200.704 162.815 200.376C161.17 200.049 159.464 200.217 157.914 200.859C156.365 201.501 155.04 202.588 154.108 203.983C153.176 205.378 152.678 207.018 152.678 208.696C152.681 210.944 153.575 213.1 155.166 214.691C156.756 216.281 158.912 217.175 161.16 217.178ZM161.16 204.455C161.999 204.455 162.819 204.703 163.517 205.169C164.214 205.635 164.758 206.298 165.079 207.073C165.4 207.848 165.484 208.7 165.32 209.523C165.156 210.346 164.752 211.101 164.159 211.695C163.566 212.288 162.811 212.692 161.988 212.855C161.165 213.019 160.312 212.935 159.537 212.614C158.763 212.293 158.1 211.749 157.634 211.052C157.168 210.354 156.919 209.534 156.919 208.696C156.92 207.571 157.368 206.493 158.163 205.698C158.958 204.903 160.036 204.456 161.16 204.455ZM370.389 113.97C369.27 113.97 368.177 114.302 367.247 114.923C366.317 115.545 365.592 116.428 365.164 117.461C364.736 118.494 364.624 119.631 364.843 120.728C365.061 121.825 365.599 122.833 366.39 123.623C367.181 124.414 368.189 124.953 369.285 125.171C370.382 125.389 371.519 125.277 372.553 124.849C373.586 124.421 374.469 123.696 375.09 122.767C375.712 121.837 376.043 120.743 376.043 119.625C376.042 118.126 375.445 116.688 374.385 115.628C373.325 114.568 371.888 113.972 370.389 113.97ZM370.389 122.452C369.829 122.452 369.283 122.287 368.818 121.976C368.353 121.665 367.99 121.224 367.776 120.707C367.562 120.19 367.506 119.622 367.616 119.073C367.725 118.525 367.994 118.021 368.389 117.626C368.785 117.23 369.289 116.961 369.837 116.852C370.385 116.743 370.954 116.799 371.471 117.013C371.987 117.227 372.429 117.589 372.739 118.054C373.05 118.519 373.216 119.066 373.216 119.625C373.215 120.375 372.917 121.093 372.387 121.623C371.857 122.153 371.138 122.452 370.389 122.452ZM291.226 149.253C290.107 149.253 289.014 149.585 288.084 150.206C287.154 150.828 286.429 151.711 286.001 152.744C285.573 153.777 285.461 154.914 285.68 156.011C285.898 157.108 286.436 158.116 287.227 158.906C288.018 159.697 289.026 160.236 290.122 160.454C291.219 160.672 292.356 160.56 293.39 160.132C294.423 159.704 295.306 158.979 295.927 158.05C296.549 157.12 296.88 156.026 296.88 154.908C296.879 153.409 296.282 151.971 295.222 150.911C294.162 149.851 292.725 149.255 291.226 149.253ZM291.226 157.735C290.666 157.735 290.12 157.57 289.655 157.259C289.19 156.948 288.827 156.507 288.613 155.99C288.399 155.473 288.344 154.905 288.453 154.356C288.562 153.808 288.831 153.304 289.226 152.909C289.622 152.513 290.126 152.244 290.674 152.135C291.223 152.026 291.791 152.082 292.308 152.296C292.824 152.51 293.266 152.872 293.577 153.337C293.887 153.802 294.053 154.349 294.053 154.908C294.052 155.658 293.754 156.376 293.224 156.906C292.694 157.436 291.975 157.735 291.226 157.735ZM453.242 64.6489C452.124 64.6489 451.031 64.9806 450.101 65.6019C449.171 66.2233 448.446 67.1064 448.018 68.1397C447.59 69.173 447.478 70.31 447.696 71.4069C447.914 72.5038 448.453 73.5114 449.244 74.3022C450.035 75.093 451.042 75.6316 452.139 75.8498C453.236 76.068 454.373 75.956 455.406 75.528C456.44 75.1 457.323 74.3752 457.944 73.4453C458.565 72.5154 458.897 71.4221 458.897 70.3037C458.895 68.8045 458.299 67.3672 457.239 66.3071C456.179 65.247 454.741 64.6506 453.242 64.6489ZM453.242 73.1311C452.683 73.1311 452.136 72.9652 451.671 72.6546C451.206 72.3439 450.844 71.9023 450.63 71.3857C450.416 70.869 450.36 70.3006 450.469 69.7521C450.578 69.2036 450.848 68.6998 451.243 68.3044C451.638 67.909 452.142 67.6397 452.691 67.5306C453.239 67.4215 453.808 67.4775 454.324 67.6915C454.841 67.9055 455.282 68.2679 455.593 68.7329C455.904 69.1978 456.07 69.7445 456.07 70.3037C456.069 71.0533 455.771 71.7721 455.241 72.3021C454.711 72.8322 453.992 73.1303 453.242 73.1311ZM95.1882 99.774C95.1882 98.6556 94.8566 97.5623 94.2352 96.6324C93.6139 95.7025 92.7307 94.9777 91.6975 94.5497C90.6642 94.1217 89.5272 94.0097 88.4303 94.2279C87.3334 94.4461 86.3258 94.9847 85.535 95.7755C84.7441 96.5663 84.2056 97.5739 83.9874 98.6708C83.7692 99.7677 83.8812 100.905 84.3092 101.938C84.7372 102.971 85.4619 103.854 86.3919 104.476C87.3218 105.097 88.4151 105.429 89.5335 105.429C91.0327 105.427 92.47 104.831 93.5301 103.771C94.5902 102.711 95.1865 101.273 95.1882 99.774ZM86.7061 99.774C86.7061 99.2148 86.8719 98.6682 87.1826 98.2032C87.4933 97.7383 87.9349 97.3759 88.4515 97.1619C88.9681 96.9479 89.5366 96.8919 90.0851 97.001C90.6335 97.1101 91.1373 97.3793 91.5327 97.7748C91.9282 98.1702 92.1974 98.674 92.3065 99.2224C92.4156 99.7709 92.3596 100.339 92.1456 100.856C91.9316 101.373 91.5692 101.814 91.1043 102.125C90.6393 102.436 90.0927 102.601 89.5335 102.601C88.7838 102.601 88.0651 102.303 87.535 101.772C87.005 101.242 86.7068 100.524 86.7061 99.774Z" fill="#007CC7"/>
</g>
<defs>
<clipPath id="clip0">
<rect width="475" height="475" fill="white" transform="translate(-0.000305176)"/>
</clipPath>
</defs>
</svg>
