<svg width="19" height="27" viewBox="0 0 19 27" fill="none" xmlns="http://www.w3.org/2000/svg">
<path d="M1.30798 9.62212e-06C1.13684 -0.00064807 0.967243 0.0324163 0.808882 0.0973141C0.65052 0.162212 0.506495 0.257672 0.385033 0.378241C0.26357 0.498811 0.16705 0.642127 0.100985 0.800006C0.0349203 0.957884 0.000605355 1.12723 0 1.29837V5.2127C0.000605336 5.38384 0.0349203 5.55319 0.100985 5.71107C0.16705 5.86895 0.26357 6.01226 0.385033 6.13283C0.506495 6.2534 0.65052 6.34886 0.808882 6.41376C0.967243 6.47866 1.13684 6.51172 1.30798 6.51106H16.9364C17.1076 6.51172 17.2772 6.47866 17.4355 6.41376C17.5939 6.34886 17.7379 6.2534 17.8594 6.13283C17.9808 6.01226 18.0774 5.86895 18.1434 5.71107C18.2095 5.55319 18.2438 5.38384 18.2444 5.2127V1.29837C18.2438 1.12723 18.2095 0.957884 18.1434 0.800006C18.0774 0.642127 17.9808 0.498811 17.8594 0.378241C17.7379 0.257672 17.5939 0.162212 17.4355 0.0973141C17.2772 0.0324163 17.1076 -0.00064807 16.9364 9.62212e-06H1.30798ZM2.60635 2.60636H15.6381V3.90472H2.60635V2.60636Z" fill="#F6F5F5"/>
<path d="M1.17334 7.81912C0.851497 7.85131 0.55313 8.00204 0.336266 8.24201C0.119401 8.48199 -0.000457295 8.79404 1.3112e-06 9.11749V24.7556C0.000347565 24.9774 0.0573415 25.1955 0.165582 25.3892C0.273823 25.5829 0.429725 25.7457 0.618515 25.8622C0.807304 25.9788 1.02273 26.0452 1.24437 26.0552C1.46601 26.0652 1.68653 26.0184 1.88503 25.9193L9.12702 22.3031L16.3594 25.9193C16.5579 26.0184 16.7784 26.0652 17.0001 26.0552C17.2217 26.0452 17.4371 25.9788 17.6259 25.8622C17.8147 25.7457 17.9706 25.5829 18.0788 25.3892C18.1871 25.1955 18.2441 24.9774 18.2444 24.7556V9.11749C18.2438 8.94635 18.2095 8.777 18.1434 8.61912C18.0774 8.46124 17.9809 8.31792 17.8594 8.19735C17.7379 8.07679 17.5939 7.98133 17.4355 7.91643C17.2772 7.85153 17.1076 7.81847 16.9364 7.81912H1.30798C1.26313 7.8168 1.21819 7.8168 1.17334 7.81912H1.17334ZM2.60635 10.4255H15.6381V22.6493L9.70407 19.6775C9.52337 19.5873 9.32417 19.5404 9.12221 19.5404C8.92025 19.5404 8.72106 19.5873 8.54035 19.6775L2.60635 22.6493V10.4255Z" fill="#F6F5F5"/>
</svg>
