<svg width="49" height="39" viewBox="0 0 49 39" fill="none" xmlns="http://www.w3.org/2000/svg">
<path d="M40.131 21.0197L25.8606 33.9123V38.295H30.7036L44.9505 25.3811L40.131 21.0197ZM48.665 20.3814L45.6558 17.6582C45.5427 17.5452 45.4049 17.4547 45.2511 17.3924C45.0973 17.3302 44.9309 17.2975 44.7624 17.2966C44.4097 17.3178 44.0806 17.4242 43.8455 17.6582L41.4945 19.7857L46.314 24.0407L48.665 21.9132C49.1117 21.4877 49.1117 20.8069 48.665 20.3814ZM21.1587 29.785H4.70193V8.51L23.5097 19.1475L42.3174 8.51V12.765H47.0193V4.255C47.0193 1.91475 44.9034 0 42.3174 0H4.70193C2.11587 0 0 1.91475 0 4.255V29.785C0 32.1252 2.11587 34.04 4.70193 34.04H21.1587V29.785ZM42.3174 4.255L23.5097 14.8925L4.70193 4.255H42.3174Z" fill="#EEFBFB"/>
</svg>
