<svg width="400" height="197" viewBox="0 0 400 197" fill="none" xmlns="http://www.w3.org/2000/svg">
<path d="M61.6923 131.498H92.5385L159.166 191.572C160.586 193.006 162.303 194.156 164.212 194.95C166.121 195.744 168.182 196.167 170.271 196.193C174.361 196.193 178.284 194.672 181.177 191.964C184.069 189.255 185.694 185.582 185.694 181.752V174.821L205.435 192.15C208.469 194.826 212.385 196.456 216.54 196.771C220.558 196.563 224.354 194.975 227.2 192.311C230.045 189.646 231.741 186.092 231.963 182.33V175.398L243.068 185.796C246.238 188.273 250.084 189.873 254.172 190.417C258.191 190.209 261.986 188.621 264.832 185.957C267.678 183.292 269.374 179.739 269.595 175.976V169.044L281.934 179.442C284.186 181.713 287.159 183.245 290.413 183.813C293.667 184.38 297.03 183.952 300.004 182.592C302.979 181.232 305.407 179.012 306.93 176.26C308.453 173.509 308.99 170.371 308.462 167.312V160.38L169.654 30.4121H61.6923V131.498Z" fill="url(#paint0_linear)"/>
<path d="M339.308 36.7655H330.671C277.615 29.8339 255.406 0.952148 240.6 0.952148H209.754C194.331 0.952148 163.485 29.8339 134.489 51.784C125.852 57.5603 134.489 73.7341 161.634 73.7341C175.885 73.6676 189.569 68.5011 199.883 59.2932L307.845 160.379L323.268 145.938H338.691L339.308 36.7655Z" fill="url(#paint1_linear)"/>
<path d="M353.731 22.7583H384.577C388.595 22.9659 392.391 24.5539 395.236 27.2185C398.082 29.883 399.778 33.4367 400 37.1991V144.495C400 148.325 398.375 151.998 395.483 154.706C392.59 157.414 388.667 158.935 384.577 158.935H353.731C349.64 158.935 345.717 157.414 342.825 154.706C339.933 151.998 338.308 148.325 338.308 144.495V37.3436C338.562 33.5918 340.269 30.0556 343.108 27.3973C345.947 24.739 349.724 23.1411 353.731 22.9027V22.7583Z" fill="#EEFBFB"/>
<path d="M379.716 130.775H360.437V159.224H379.716V130.775Z" fill="#F6F5F5"/>
<path d="M379.716 130.486C379.801 131.703 379.616 132.923 379.172 134.07C378.728 135.216 378.035 136.263 377.136 137.146C376.237 138.028 375.152 138.726 373.95 139.195C372.749 139.665 371.456 139.896 370.154 139.873C368.785 140.035 367.396 139.923 366.078 139.544C364.759 139.164 363.542 138.527 362.508 137.673C361.473 136.819 360.644 135.769 360.077 134.592C359.509 133.415 359.215 132.139 359.215 130.847C359.215 129.556 359.509 128.28 360.077 127.103C360.644 125.926 361.473 124.876 362.508 124.022C363.542 123.168 364.759 122.53 366.078 122.151C367.396 121.772 368.785 121.66 370.154 121.822C371.389 121.803 372.617 122.012 373.766 122.437C374.915 122.862 375.964 123.495 376.852 124.3C377.74 125.104 378.45 126.065 378.941 127.126C379.432 128.188 379.696 129.33 379.716 130.486Z" fill="#12232E"/>
<path d="M15.4231 151.281H46.2692C50.2762 151.043 54.0529 149.445 56.892 146.787C59.7311 144.128 61.4377 140.592 61.6923 136.84V29.4003C61.6923 25.5704 60.0674 21.8973 57.175 19.1891C54.2826 16.4809 50.3597 14.9595 46.2692 14.9595H15.4231C11.3326 14.9595 7.4097 16.4809 4.51731 19.1891C1.62493 21.8973 0 25.5704 0 29.4003V136.551C0.286483 140.293 2.0034 143.812 4.83605 146.464C7.66871 149.117 11.4274 150.724 15.4231 150.992V151.281Z" fill="#007CC7"/>
<path d="M40.563 43.5532C40.6486 42.3175 40.4594 41.0786 40.0076 39.9148C39.5557 38.7511 38.8509 37.6877 37.9377 36.792C37.0245 35.8963 35.9229 35.1877 34.7023 34.7109C33.4817 34.2342 32.1688 33.9997 30.8465 34.0222C29.5371 34.0197 28.2411 34.269 27.0388 34.7546C25.8365 35.2402 24.7536 35.9519 23.8571 36.8454C22.9606 37.739 22.2696 38.7954 21.827 39.9492C21.3844 41.1031 21.1997 42.3297 21.2841 43.5532C21.3039 44.7035 21.5682 45.8387 22.0615 46.8923C22.5549 47.946 23.2674 48.8972 24.1575 49.6903C25.0477 50.4834 26.0976 51.1026 27.246 51.5117C28.3945 51.9209 29.6184 52.1117 30.8465 52.0732C32.0821 52.1118 33.3138 51.9219 34.471 51.5145C35.6283 51.1071 36.6884 50.4901 37.5908 49.6988C38.4932 48.9076 39.2202 47.9575 39.7302 46.903C40.2402 45.8485 40.5232 44.7102 40.563 43.5532Z" fill="#12232E"/>
<defs>
<linearGradient id="paint0_linear" x1="185.077" y1="-22.5859" x2="185.077" y2="240.671" gradientUnits="userSpaceOnUse">
<stop stop-color="#FAD0A2"/>
<stop offset="0.56" stop-color="#FEBB92"/>
<stop offset="0.61" stop-color="#FEB68E"/>
<stop offset="0.84" stop-color="#FDA07F"/>
<stop offset="0.99" stop-color="#FD9879"/>
</linearGradient>
<linearGradient id="paint1_linear" x1="235.356" y1="246.158" x2="235.356" y2="2.68504" gradientUnits="userSpaceOnUse">
<stop stop-color="#FAD0A2"/>
<stop offset="0.45" stop-color="#FEBB92"/>
<stop offset="0.99" stop-color="#FD9879"/>
</linearGradient>
</defs>
</svg>
