<svg width="50" height="50" viewBox="0 0 50 50" fill="none" xmlns="http://www.w3.org/2000/svg">
<g clip-path="url(#clip0)">
<path d="M34.375 0H15.625C11.481 0 7.50671 1.6462 4.57646 4.57646C1.6462 7.50671 0 11.481 0 15.625L0 34.375C0 38.519 1.6462 42.4933 4.57646 45.4235C7.50671 48.3538 11.481 50 15.625 50H34.375C38.519 50 42.4933 48.3538 45.4235 45.4235C48.3538 42.4933 50 38.519 50 34.375V15.625C50 11.481 48.3538 7.50671 45.4235 4.57646C42.4933 1.6462 38.519 0 34.375 0V0ZM45.3125 34.375C45.3125 40.4062 40.4062 45.3125 34.375 45.3125H15.625C9.59375 45.3125 4.6875 40.4062 4.6875 34.375V15.625C4.6875 9.59375 9.59375 4.6875 15.625 4.6875H34.375C40.4062 4.6875 45.3125 9.59375 45.3125 15.625V34.375Z" fill="url(#paint0_linear)"/>
<path d="M24.5 13C21.1848 13 18.0054 14.317 15.6612 16.6612C13.317 19.0054 12 22.1848 12 25.5C12 28.8152 13.317 31.9946 15.6612 34.3388C18.0054 36.683 21.1848 38 24.5 38C27.8152 38 30.9946 36.683 33.3388 34.3388C35.683 31.9946 37 28.8152 37 25.5C37 22.1848 35.683 19.0054 33.3388 16.6612C30.9946 14.317 27.8152 13 24.5 13ZM24.5 33.3125C22.4288 33.31 20.4431 32.4861 18.9785 31.0215C17.5139 29.5569 16.69 27.5712 16.6875 25.5C16.6875 21.1906 20.1938 17.6875 24.5 17.6875C28.8062 17.6875 32.3125 21.1906 32.3125 25.5C32.3125 29.8062 28.8062 33.3125 24.5 33.3125Z" fill="url(#paint1_linear)"/>
<path d="M38.4375 13.2282C39.3574 13.2282 40.1031 12.4825 40.1031 11.5626C40.1031 10.6427 39.3574 9.89697 38.4375 9.89697C37.5176 9.89697 36.7719 10.6427 36.7719 11.5626C36.7719 12.4825 37.5176 13.2282 38.4375 13.2282Z" fill="url(#paint2_linear)"/>
</g>
<defs>
<linearGradient id="paint0_linear" x1="4.57656" y1="45.4234" x2="45.4234" y2="4.57656" gradientUnits="userSpaceOnUse">
<stop stop-color="#FFC107"/>
<stop offset="0.5074" stop-color="#F44336"/>
<stop offset="0.9901" stop-color="#9C27B0"/>
</linearGradient>
<linearGradient id="paint1_linear" x1="15.6613" y1="34.3387" x2="33.3387" y2="16.6613" gradientUnits="userSpaceOnUse">
<stop stop-color="#FFC107"/>
<stop offset="0.5074" stop-color="#F44336"/>
<stop offset="0.9901" stop-color="#9C27B0"/>
</linearGradient>
<linearGradient id="paint2_linear" x1="37.2591" y1="12.741" x2="39.6159" y2="10.3842" gradientUnits="userSpaceOnUse">
<stop stop-color="#FFC107"/>
<stop offset="0.5074" stop-color="#F44336"/>
<stop offset="0.9901" stop-color="#9C27B0"/>
</linearGradient>
<clipPath id="clip0">
<rect width="50" height="50" fill="white"/>
</clipPath>
</defs>
</svg>
