<svg width="17" height="28" viewBox="0 0 17 28" fill="none" xmlns="http://www.w3.org/2000/svg">
<path d="M2.74347 0C1.24768 -5.18324e-08 0 1.24768 0 2.74347V24.6811C0 26.1769 1.24768 27.4246 2.74347 27.4246H13.7072C15.203 27.4246 16.4507 26.1769 16.4507 24.6811V2.74347C16.4507 1.24768 15.203 0 13.7072 0H2.74347ZM2.74347 2.74347H13.7072V24.6811H2.74347V2.74347Z" fill="#F6F5F5"/>
<path d="M6.72177 20.5709C6.35802 20.5884 6.01612 20.7497 5.77127 21.0193C5.52643 21.2889 5.39868 21.6447 5.41613 22.0084C5.43358 22.3722 5.5948 22.7141 5.86432 22.959C6.13385 23.2039 6.48962 23.3318 6.85338 23.3144H9.59685C9.96066 23.3144 10.3096 23.1699 10.5668 22.9126C10.8241 22.6554 10.9686 22.3065 10.9686 21.9427C10.9686 21.5788 10.8241 21.2299 10.5668 20.9727C10.3096 20.7154 9.96066 20.5709 9.59685 20.5709H6.85338C6.80953 20.5688 6.76561 20.5688 6.72177 20.5709H6.72177Z" fill="#F6F5F5"/>
</svg>
