<svg width="23" height="24" viewBox="0 0 23 24" fill="none" xmlns="http://www.w3.org/2000/svg">
<path d="M14.2783 0.00156989C13.9842 0.0130372 13.7053 0.137063 13.4981 0.348578L0.337655 13.665C0.121386 13.8852 0 14.1831 0 14.4935C0 14.804 0.121386 15.1018 0.337655 15.322L7.85669 22.9388C8.07431 23.1577 8.36866 23.2805 8.67547 23.2805C8.98228 23.2805 9.27663 23.1577 9.49425 22.9388L22.6633 9.6137C22.7789 9.49576 22.8684 9.35437 22.926 9.19886C22.9837 9.04334 23.0081 8.87724 22.9977 8.71148L22.5261 1.57178C22.5071 1.28822 22.3872 1.02123 22.1886 0.820254C21.9899 0.619282 21.7261 0.497943 21.4458 0.478707L14.3983 0.00156989C14.3584 -0.000523296 14.3183 -0.000523296 14.2783 0.00156989H14.2783ZM14.767 2.38725L20.2798 2.75161L20.6485 8.32977L8.67118 20.4404L2.79827 14.4978L14.767 2.38725Z" fill="#F6F5F5"/>
</svg>
