<svg width="24" height="22" viewBox="0 0 24 22" fill="none" xmlns="http://www.w3.org/2000/svg">
<path d="M7.52578 0C5.59782 0 3.668 0.731868 2.2008 2.18916C-0.733601 5.10373 -0.733601 9.84383 2.2008 12.7584L11.1581 21.6551C11.3818 21.876 11.6845 22 12 22C12.3155 22 12.6182 21.876 12.8419 21.6551L21.7992 12.7584C24.7336 9.84383 24.7336 5.10373 21.7992 2.18916C19.0982 -0.493572 14.9538 -0.417027 12.0044 1.83889C10.656 0.805495 9.14931 0 7.52578 0ZM7.52578 2.35553C8.83587 2.35553 10.1441 2.85457 11.1581 3.86167C11.3818 4.08256 11.6845 4.20654 12 4.20654C12.3155 4.20654 12.6182 4.08256 12.8419 3.86167C14.8699 1.84746 18.0874 1.84746 20.1153 3.86167C22.1432 5.87589 22.1432 9.07168 20.1153 11.0859L12.0044 19.142L3.88469 11.0859C1.85678 9.07168 1.85678 5.87589 3.88469 3.86167C4.89865 2.85457 6.2157 2.35553 7.52578 2.35553Z" fill="#F6F5F5"/>
</svg>
