<svg width="49" height="46" viewBox="0 0 49 46" fill="none" xmlns="http://www.w3.org/2000/svg">
<path fill-rule="evenodd" clip-rule="evenodd" d="M18.509 18.303C19.1906 17.8909 19.6 17.197 19.6 16.454V7.56541C19.6 3.88361 16.3093 0.898926 12.25 0.898926H2.45C1.0969 0.898926 0 1.89382 0 3.12109C0 25.2119 22.1942 45.3421 46.55 45.3421C47.9031 45.3421 49 44.3472 49 43.12V34.2313C49 30.5495 45.7093 27.5648 41.65 27.5648H31.85C31.0308 27.5648 30.2659 27.9362 29.8115 28.5544L25.1434 34.9053C20.0591 31.9236 15.6047 27.9852 12.1783 23.4515L11.5069 22.537L18.509 18.303ZM33.1613 32.0088H41.6501C43.0032 32.0088 44.1001 33.0037 44.1001 34.2309V40.8204C39.3539 40.5225 34.7219 39.3711 30.4015 37.5454L29.4102 37.1122L33.1613 32.0088ZM29.4001 9.78771C34.8125 9.78771 39.2001 13.7673 39.2001 18.6763C39.2001 19.9036 38.1032 20.8985 36.7501 20.8985C35.4936 20.8985 34.4581 20.0407 34.3166 18.9355L34.2866 18.3447C34.0996 16.045 31.9833 14.232 29.4001 14.232C28.047 14.232 26.9501 13.2371 26.9501 12.0099C26.9501 10.7826 28.047 9.78771 29.4001 9.78771ZM29.4001 0.898926C40.2249 0.898926 49.0001 8.85809 49.0001 18.6762C49.0001 19.9035 47.9032 20.8984 46.5501 20.8984C45.197 20.8984 44.1001 19.9035 44.1001 18.6762C44.1001 11.3126 37.5187 5.34325 29.4001 5.34325C28.047 5.34325 26.9501 4.34835 26.9501 3.12109C26.9501 1.89382 28.047 0.898926 29.4001 0.898926ZM12.2499 5.34332C13.603 5.34332 14.6999 6.33821 14.6999 7.56548V15.2649L9.07322 18.6672C6.78356 14.4952 5.33857 9.97932 4.98489 5.34332H12.2499Z" fill="#EEFBFB"/>
</svg>
