<svg width="90" height="90" viewBox="0 0 90 90" fill="none" xmlns="http://www.w3.org/2000/svg">
<path d="M44.8122 0C20.1012 0 0 20.0872 0 44.7767C0 69.4661 20.1012 89.5533 44.8122 89.5533C69.5232 89.5533 89.6244 69.4661 89.6244 44.7767C89.6244 20.0872 69.5232 0 44.8122 0ZM56.2549 9.61725L44.8122 35.0426L33.3695 9.61725C36.9759 8.44138 40.818 7.78725 44.8122 7.78725C48.8063 7.78725 52.6485 8.44138 56.2549 9.61725ZM25.7982 13.0981L39.7426 42.8299H49.8798L63.8242 13.0981C67.9668 15.5912 71.584 18.8664 74.4739 22.7407L57.1901 60.3512L49.9948 46.7235H39.6296L32.4343 60.3512L15.1485 22.7407C18.0389 18.8668 21.656 15.5918 25.7982 13.0981ZM7.79342 44.7767C7.79342 40.2056 8.66628 35.8466 10.1899 31.8012L31.4542 79.2352L31.4952 79.2508C17.6521 73.8912 7.79342 60.4777 7.79342 44.7767ZM31.5341 79.2644L44.8122 54.5107L58.0902 79.2644C53.9617 80.8569 49.496 81.7661 44.8122 81.7661C40.1283 81.7661 35.6627 80.8569 31.5341 79.2644ZM58.1272 79.2508L58.1682 79.2352L79.4344 31.8012C81.0105 35.9463 81.8225 40.3424 81.8309 44.7767C81.8309 60.4777 71.9723 73.8912 58.1272 79.2508Z" fill="#F6F5F5"/>
</svg>
