<svg width="181" height="181" viewBox="0 0 181 181" fill="none" xmlns="http://www.w3.org/2000/svg">
<path d="M23.0018 90.4478V67.4457V43.6894V18.8019C23.0018 14.654 26.3956 11.2603 30.5435 11.2603H68.2518L63.3497 26.3436L37.331 79.5123L23.0018 90.4478Z" fill="#58BF97"/>
<path d="M64.1041 26.3433H49.0208C49.0208 32.7537 44.1187 37.6558 37.7083 37.6558V40.2953V63.6745V79.1349H49.3979L64.1041 26.3433Z" fill="#38A378"/>
<path d="M44.8115 79.0823L52.3532 56.8343L59.8949 34.2093L67.4365 10.4531C68.5678 6.68225 73.0928 4.41975 76.8636 5.551L141.345 27.0448C145.116 28.176 147.378 32.701 146.247 36.4718L131.918 79.4593" fill="#58BF97"/>
<path d="M143.292 78.8105H82.9583H75.4167H37.7083C29.4125 78.8105 22.625 85.598 22.625 93.8939V161.769C22.625 170.065 29.4125 176.852 37.7083 176.852H98.0417H105.583H143.292C151.587 176.852 158.375 170.065 158.375 161.769V93.8939C158.375 85.598 151.587 78.8105 143.292 78.8105Z" fill="#007CC7"/>
<path d="M154.604 154.227H124.06C115.765 154.227 109.354 147.44 109.354 139.144C109.354 130.848 115.765 124.061 124.06 124.061H154.604" fill="#EEFBFB"/>
<path d="M64.8581 80.0995C64.481 80.0995 64.1039 80.0995 63.7268 79.7224C61.8414 78.9682 60.7102 77.0828 61.4643 74.8203L76.9247 28.062C77.6789 26.1766 79.5643 25.0453 81.8268 25.7995C85.5977 26.9307 90.1227 25.0453 91.2539 20.8974C91.631 19.7661 92.3852 19.012 93.1393 18.6349C93.8935 18.2578 95.0247 18.2578 96.156 18.2578L124.814 27.6849C126.7 28.4391 127.831 30.3245 127.077 32.587C125.946 36.3578 127.831 40.8828 131.979 42.0141C133.11 42.3911 133.864 43.1453 134.241 43.8995C134.618 44.6536 134.618 45.7849 134.618 46.9161L124.814 77.0828C124.06 78.9682 122.175 80.0995 119.912 79.3453C118.027 78.5912 116.896 76.7057 117.65 74.4432L126.7 47.6703C122.175 44.6536 119.535 39.3745 119.912 34.0953L97.6643 26.5536C94.6476 31.0786 89.3685 33.7182 84.0893 33.3411L69.7602 76.7057C67.8747 78.9682 66.3664 80.0995 64.8581 80.0995Z" fill="#145374"/>
<path d="M120.29 79.1348L130.094 48.9682C124.06 47.0827 121.044 40.6723 122.929 34.639L94.2709 25.2119C92.3855 31.2452 85.9751 34.2619 79.9417 32.3765L79.1876 35.0161L71.6459 57.264L64.4813 79.1348" fill="#707070"/>
<path d="M109.824 49.4487C111.135 45.4953 108.993 41.2275 105.04 39.9164C101.086 38.6052 96.8187 40.7472 95.5076 44.7006C94.1964 48.654 96.3384 52.9218 100.292 54.2329C104.245 55.544 108.513 53.4021 109.824 49.4487Z" fill="#060707"/>
<path d="M124.438 142.538C126.52 142.538 128.208 140.85 128.208 138.767C128.208 136.684 126.52 134.996 124.438 134.996C122.355 134.996 120.667 136.684 120.667 138.767C120.667 140.85 122.355 142.538 124.438 142.538Z" fill="#060707"/>
</svg>
